<svg width="514" height="401" viewBox="0 0 514 401" fill="none" xmlns="http://www.w3.org/2000/svg">
<g clip-path="url(#clip0_494_138)">
<path d="M483.484 172.95L513.961 155.125L513.414 383.077L482.938 400.902L483.484 172.95Z" fill="#185A97"/>
<path d="M482.939 400.902L223.355 252.357L223.902 48.7139L483.485 197.262L482.939 400.902Z" fill="#137AD1"/>
<path d="M223.898 17.9204V48.7137L483.487 197.791V166.477L223.898 17.9204ZM243.49 53.0257C240.226 50.8857 236.958 45.473 236.958 41.682C236.958 37.3699 240.223 35.7482 243.49 37.9203C247.31 40.0603 250.023 44.9227 250.023 49.2667C250.023 53.5761 247.312 55.1951 243.49 53.0257ZM264.164 64.3695C260.375 62.7478 257.632 57.3671 257.632 53.023C257.632 49.2614 260.375 47.6424 264.164 49.2614C267.984 51.4014 270.697 56.2637 270.697 60.6078C270.694 64.9198 267.984 66.5415 264.164 64.3695ZM285.39 76.7846C281.6 74.6446 278.336 69.2319 278.858 65.4702C278.858 61.1288 281.568 59.5071 285.39 61.6792C289.212 63.8512 291.923 68.7136 291.923 73.0256C291.923 77.3349 289.212 78.9566 285.39 76.7846Z" fill="#45CAF2"/>
<path d="M250.02 49.2621C250.02 53.5741 247.31 55.1958 243.488 53.0238C240.223 50.8838 236.955 45.4711 236.955 41.68C236.955 37.368 240.22 35.7463 243.488 37.9183C247.31 40.0556 250.02 44.918 250.02 49.2621Z" fill="#137AD1"/>
<path d="M270.69 60.6071C270.69 64.9191 267.979 66.5408 264.157 64.3688C260.368 62.7471 257.625 57.3664 257.625 53.0223C257.625 49.2607 260.368 47.6417 264.157 49.2607C267.979 51.4033 270.69 56.2657 270.69 60.6071Z" fill="#137AD1"/>
<path d="M291.921 73.0211C291.921 77.3331 289.21 78.9548 285.388 76.7827C281.599 74.6428 278.334 69.23 278.856 65.4684C278.856 61.127 281.566 59.5053 285.388 61.6773C289.21 63.8494 291.921 68.7117 291.921 73.0211Z" fill="#137AD1"/>
<path d="M483.484 166.466L513.958 149.18V179.971L483.484 197.254V166.466Z" fill="#32B0E7"/>
<path d="M223.898 17.9223L254.375 0.097168L513.959 148.645L483.485 166.471L223.898 17.9223Z" fill="#50E6FF"/>
<path opacity="0.2" d="M308.547 151.999L307.858 237.069C307.849 238.01 308.355 238.881 309.182 239.343L384.616 281.736C386.349 282.711 388.497 281.48 388.513 279.5L389.202 194.43C389.21 193.489 388.704 192.618 387.878 192.154L312.444 149.757C310.708 148.793 308.56 150.025 308.547 151.999Z" fill="#185A97"/>
<path opacity="0.5" d="M214.395 198.537L283.363 159.462L352.332 197.912L283.676 237.3L214.395 198.537Z" fill="#50E6FF"/>
<path opacity="0.5" d="M283.676 237.3L282.729 315.136L352.012 276.061L352.639 198.225L283.676 237.3Z" fill="#0078D4"/>
<path opacity="0.5" d="M214.397 198.535L213.77 276.371L282.738 315.131L283.366 237.295L214.397 198.535Z" fill="#1E9FE0"/>
<path d="M283.677 159.464L352.645 197.914L352.018 275.749L282.734 315.137L213.766 276.375L214.393 198.539L283.677 159.464ZM283.677 156.025C283.049 156.025 282.732 156.025 282.102 156.338L212.821 196.036C211.873 196.661 211.246 197.599 211.246 199.162C211.246 199.162 211.246 199.162 211.246 199.474L210.299 276.369C210.299 277.622 210.929 278.557 211.873 279.495L280.842 317.945C281.469 318.258 281.787 318.258 282.417 318.258C283.044 318.258 283.362 318.258 283.989 317.945C283.989 317.945 283.989 317.945 284.304 317.945L352.96 278.873C353.905 278.247 354.535 277.31 354.535 275.747L355.162 197.911C355.162 196.658 354.535 195.723 353.588 194.785L285.248 156.335C284.624 156.025 283.994 156.025 283.677 156.025Z" fill="#50E6FF"/>
<path d="M334.381 264.808L283.677 294.191L232.344 264.808L283.048 235.425L334.381 264.808Z" fill="#185A97"/>
<path d="M334.38 248.239L283.364 277.622L232.348 248.239L283.052 218.856L334.38 248.239Z" fill="#0078D4"/>
<path d="M334.381 228.859L283.677 258.242L232.344 228.859L283.048 199.477L334.381 228.859Z" fill="#32B0E7"/>
<path d="M334.381 207.916L283.677 237.299L232.344 207.916L283.048 178.533L334.381 207.916Z" fill="#50E6FF"/>
<path d="M101.868 312.658L101.256 382.721L162.286 347.384L162.893 277.321L101.868 312.658Z" fill="#2195DC"/>
<path d="M101.869 312.656L101.534 312.732L101.664 312.656L40.8421 277.929L40.2344 347.99L101.259 382.719L101.869 312.656Z" fill="#32B0E7"/>
<path d="M40.8457 277.931L101.875 242.594L162.9 277.321L101.875 312.657L40.8457 277.931Z" fill="#0078D4"/>
<path d="M101.866 228.7L101.254 298.763L162.284 263.426L162.891 193.363L101.866 228.7Z" fill="#45CAF2"/>
<path d="M101.867 228.701L101.611 228.732L101.664 228.701L40.8421 193.975L40.2344 264.035L101.259 298.764L101.867 228.701Z" fill="#ACF3FD"/>
<path d="M40.8457 193.976L101.875 158.64L162.9 193.366L101.875 228.703L40.8457 193.976Z" fill="#84ECFD"/>
<path fill-rule="evenodd" clip-rule="evenodd" d="M166.404 119.781L213.468 194.713L211.181 196.129L165.501 123.401L101.961 160.16L48.2729 128.058L5.77844 165.378L3.99219 163.374L47.9687 124.752L101.984 157.049L166.404 119.781Z" fill="#50E6FF"/>
<path fill-rule="evenodd" clip-rule="evenodd" d="M167.36 120.194L164.245 193.415L161.552 193.302L164.543 122.987L48.1753 127.741L48.0645 125.068L167.36 120.194Z" fill="#50E6FF"/>
<path d="M101.971 163.421C104.648 163.421 106.816 161.267 106.816 158.611C106.816 155.954 104.648 153.8 101.971 153.8C99.2932 153.8 97.123 155.954 97.123 158.611C97.123 161.267 99.2932 163.421 101.971 163.421Z" fill="#32B0E7"/>
<path d="M48.121 131.216C50.7984 131.216 52.9661 129.062 52.9661 126.406C52.9661 123.749 50.7984 121.595 48.121 121.595C45.4436 121.595 43.2734 123.749 43.2734 126.406C43.2734 129.062 45.4436 131.216 48.121 131.216Z" fill="#32B0E7"/>
<path d="M165.949 126.405C168.624 126.405 170.794 124.251 170.794 121.596C170.794 118.938 168.624 116.784 165.949 116.784C163.272 116.784 161.102 118.938 161.102 121.596C161.102 124.251 163.272 126.405 165.949 126.405Z" fill="#0078D4"/>
<path d="M162.902 198.478C165.577 198.478 167.747 196.324 167.747 193.669C167.747 191.011 165.577 188.857 162.902 188.857C160.225 188.857 158.055 191.011 158.055 193.669C158.055 196.324 160.225 198.478 162.902 198.478Z" fill="#0078D4"/>
<path d="M4.88465 169.786C7.56205 169.786 9.7298 167.632 9.7298 164.977C9.7298 162.322 7.56205 160.167 4.88465 160.167C2.20726 160.167 0.0371094 162.322 0.0371094 164.977C0.0371094 167.632 2.20726 169.786 4.88465 169.786Z" fill="#50E6FF"/>
<path d="M212.322 200.951C215 200.951 217.167 198.797 217.167 196.142C217.167 193.487 215 191.333 212.322 191.333C209.645 191.333 207.475 193.487 207.475 196.142C207.475 198.797 209.645 200.951 212.322 200.951Z" fill="#50E6FF"/>
</g>
<defs>
<clipPath id="clip0_494_138">
<rect width="514" height="401" fill="white"/>
</clipPath>
</defs>
</svg>
