<svg width="100" height="100" fill="none" xmlns="http://www.w3.org/2000/svg"><circle cx="50" cy="50" r="50" fill="#BFBFBF"></circle><path fill="#fff" d="M38 26h6v8h-6zM56 26h6v8h-6zM26 34h48v3a5 5 0 0 1-5 5H31a5 5 0 0 1-5-5v-3ZM50.667 14.3V8L46 15.7h3.333V22L54 14.3h-3.333ZM41.333 18.667 40.667 16 44 18.667l-1.333.666.666 2.667L40 19.333l1.333-.666ZM58.667 18.667 59.333 16 56 18.667l1.333.666L56.667 22 60 19.333l-1.333-.666Z"></path><path fill-rule="evenodd" clip-rule="evenodd" d="M50 73a1 1 0 0 1 1 1v5a1 1 0 1 1-2 0v-5a1 1 0 0 1 1-1Z" fill="#fff"></path><path d="M30 44h40v12c0 11.046-8.954 20-20 20s-20-8.954-20-20V44Z" fill="#fff"></path><path d="M56 60a6 6 0 1 1-12 0 6 6 0 0 1 12 0Z" fill="#BFBFBF"></path></svg>