<svg xmlns="http://www.w3.org/2000/svg" width="48" height="48" viewBox="0 0 48 48" fill="none">
<path fill-rule="evenodd" clip-rule="evenodd" d="M21.5 6C19.0147 6 17 8.01472 17 10.5L17 35C17 38.866 20.134 42 24 42C27.866 42 31 38.866 31 35L31 11.7347C31 11.1824 31.4477 10.7347 32 10.7347C32.5523 10.7347 33 11.1824 33 11.7347V35C33 39.9706 28.9706 44 24 44C19.0294 44 15 39.9706 15 35L15 10.5C15 6.91015 17.9101 4 21.5 4C25.0899 4 28 6.91015 28 10.5L28 35C28 37.2091 26.2091 39 24 39C21.7909 39 20 37.2091 20 35L20 20C20 19.4477 20.4477 19 21 19C21.5523 19 22 19.4477 22 20L22 35C22 36.1046 22.8954 37 24 37C25.1046 37 26 36.1046 26 35L26 10.5C26 8.01472 23.9853 6 21.5 6Z" fill="#BFBFBF"/>
<path fill-rule="evenodd" clip-rule="evenodd" d="M46 2H2V46H46V2ZM2 0C0.895431 0 0 0.895432 0 2V46C0 47.1046 0.895432 48 2 48H46C47.1046 48 48 47.1046 48 46V2C48 0.895431 47.1046 0 46 0H2Z" fill="#BFBFBF"/>
</svg>