<svg width="16" height="16" viewBox="0 0 21 20" fill="none" xmlns="http://www.w3.org/2000/svg">
<g clip-path="url(#clip0_2842_56947)">
<path d="M15.928 4.35L10.733 1.35C10.3343 1.12006 9.8822 0.999023 9.42198 0.999023C8.96176 0.999023 8.50964 1.12006 8.11098 1.35L2.91598 4.35C2.51755 4.58038 2.18669 4.91147 1.95659 5.31007C1.72649 5.70866 1.60523 6.16075 1.60498 6.621V12.621C1.60506 13.0814 1.72623 13.5337 1.95634 13.9325C2.18645 14.3313 2.5174 14.6625 2.91598 14.893L8.11598 17.893C8.51464 18.1229 8.96676 18.244 9.42698 18.244C9.8872 18.244 10.3393 18.1229 10.738 17.893L15.938 14.893C16.3366 14.6625 16.6675 14.3313 16.8976 13.9325C17.1277 13.5337 17.2489 13.0814 17.249 12.621V6.621C17.2477 6.15977 17.1249 5.70702 16.893 5.30834C16.6611 4.90966 16.3283 4.57911 15.928 4.35Z" fill="url(#paint0_linear_2842_56947)"/>
<path d="M18.342 8.74303L14.689 6.63403C14.3686 6.44929 14.0053 6.35205 13.6355 6.35205C13.2656 6.35205 12.9023 6.44929 12.582 6.63403L8.92996 8.74303C8.60937 8.92741 8.34316 9.19319 8.15826 9.51347C7.97336 9.83376 7.87632 10.1972 7.87696 10.567V14.785C7.87693 15.1547 7.97423 15.5179 8.15907 15.8381C8.34391 16.1583 8.60978 16.4242 8.92996 16.609L12.582 18.718C12.9023 18.9028 13.2656 19 13.6355 19C14.0053 19 14.3686 18.9028 14.689 18.718L18.342 16.609C18.6629 16.4247 18.9297 16.159 19.1154 15.8388C19.3011 15.5186 19.3993 15.1552 19.4 14.785V10.567C19.3994 10.1969 19.3013 9.83336 19.1155 9.51315C18.9298 9.19295 18.663 8.92732 18.342 8.74303Z" fill="url(#paint1_linear_2842_56947)"/>
<path d="M9.07796 3.96286L10.13 3.38086L14.64 12.7279L14.274 13.1279H4.33496L4.44696 11.9309H12.828L9.07796 3.96286Z" fill="url(#paint2_linear_2842_56947)"/>
<path d="M4.23193 14.085C5.06036 14.085 5.73193 13.4134 5.73193 12.585C5.73193 11.7565 5.06036 11.085 4.23193 11.085C3.40351 11.085 2.73193 11.7565 2.73193 12.585C2.73193 13.4134 3.40351 14.085 4.23193 14.085Z" fill="white"/>
<path d="M13.636 15.02C14.9305 15.02 15.98 13.9706 15.98 12.676C15.98 11.3815 14.9305 10.332 13.636 10.332C12.3414 10.332 11.292 11.3815 11.292 12.676C11.292 13.9706 12.3414 15.02 13.636 15.02Z" fill="white"/>
<path d="M9.54102 5.05811C10.3694 5.05811 11.041 4.38653 11.041 3.55811C11.041 2.72968 10.3694 2.05811 9.54102 2.05811C8.71259 2.05811 8.04102 2.72968 8.04102 3.55811C8.04102 4.38653 8.71259 5.05811 9.54102 5.05811Z" fill="white"/>
</g>
<defs>
<linearGradient id="paint0_linear_2842_56947" x1="10.761" y1="0.635996" x2="7.71798" y2="21.052" gradientUnits="userSpaceOnUse">
<stop stop-color="#32BEDD"/>
<stop offset="1" stop-color="#198AB3"/>
</linearGradient>
<linearGradient id="paint1_linear_2842_56947" x1="12.298" y1="8.38803" x2="15.941" y2="20.066" gradientUnits="userSpaceOnUse">
<stop stop-color="#50E6FF"/>
<stop offset="0.997" stop-color="#32BEDD"/>
</linearGradient>
<linearGradient id="paint2_linear_2842_56947" x1="1.33196" y1="5.11386" x2="14.072" y2="11.8949" gradientUnits="userSpaceOnUse">
<stop stop-color="white"/>
<stop offset="1" stop-color="#9CEBFF"/>
</linearGradient>
<clipPath id="clip0_2842_56947">
<rect width="18" height="18" fill="white" transform="translate(1.5 1)"/>
</clipPath>
</defs>
</svg>
