<svg width="16" height="16" viewBox="0 0 16 16" fill="none" xmlns="http://www.w3.org/2000/svg">
<path d="M14 2C14.1406 2 14.2708 2.02604 14.3906 2.07812C14.5104 2.13021 14.6146 2.20312 14.7031 2.29688C14.7969 2.38542 14.8698 2.48958 14.9219 2.60938C14.974 2.72917 15 2.85938 15 3V4.5C15 4.94792 14.9193 5.3724 14.7578 5.77344C14.6016 6.17448 14.3828 6.53125 14.1016 6.84375C13.8203 7.15625 13.487 7.41406 13.1016 7.61719C12.7214 7.8151 12.3099 7.9375 11.8672 7.98438C11.7682 8.30729 11.6328 8.60938 11.4609 8.89062C11.2943 9.17188 11.0964 9.42708 10.8672 9.65625C10.6432 9.88542 10.3932 10.0885 10.1172 10.2656C9.84115 10.4375 9.54427 10.5807 9.22656 10.6953C9.40885 10.8724 9.5599 11.0729 9.67969 11.2969C9.80469 11.5156 9.89583 11.75 9.95312 12H10.5C10.7083 12 10.9036 12.0391 11.0859 12.1172C11.2682 12.1953 11.4271 12.3021 11.5625 12.4375C11.6979 12.5729 11.8047 12.7318 11.8828 12.9141C11.9609 13.0964 12 13.2917 12 13.5V15H3V13.5C3 13.2917 3.03906 13.0964 3.11719 12.9141C3.19531 12.7318 3.30208 12.5729 3.4375 12.4375C3.57292 12.3021 3.73177 12.1953 3.91406 12.1172C4.09635 12.0391 4.29167 12 4.5 12H5.04688C5.10417 11.75 5.19271 11.5156 5.3125 11.2969C5.4375 11.0729 5.59115 10.8724 5.77344 10.6953C5.45573 10.5807 5.15885 10.4375 4.88281 10.2656C4.60677 10.0885 4.35417 9.88542 4.125 9.65625C3.90104 9.42708 3.70312 9.17188 3.53125 8.89062C3.36458 8.60938 3.23177 8.30729 3.13281 7.98438C2.6849 7.9375 2.27083 7.8151 1.89062 7.61719C1.51042 7.41406 1.17969 7.15625 0.898438 6.84375C0.617188 6.53125 0.395833 6.17448 0.234375 5.77344C0.078125 5.3724 0 4.94792 0 4.5V3C0 2.85938 0.0260417 2.72917 0.078125 2.60938C0.130208 2.48958 0.200521 2.38542 0.289062 2.29688C0.382812 2.20312 0.489583 2.13021 0.609375 2.07812C0.729167 2.02604 0.859375 2 1 2H3V1H12V2H14ZM4 2V3H11V2H4ZM1 4.5C1 4.79688 1.04948 5.08073 1.14844 5.35156C1.2474 5.6224 1.38542 5.86719 1.5625 6.08594C1.73958 6.29948 1.95052 6.48177 2.19531 6.63281C2.4401 6.78385 2.70833 6.89062 3 6.95312V3H1V4.5ZM11 13.5C11 13.3646 10.9505 13.2474 10.8516 13.1484C10.7526 13.0495 10.6354 13 10.5 13H4.5C4.36458 13 4.2474 13.0495 4.14844 13.1484C4.04948 13.2474 4 13.3646 4 13.5V14H11V13.5ZM8.91406 12C8.86198 11.849 8.78906 11.7135 8.69531 11.5938C8.60156 11.4688 8.49219 11.362 8.36719 11.2734C8.24219 11.1849 8.10417 11.1172 7.95312 11.0703C7.80729 11.0234 7.65625 11 7.5 11C7.34375 11 7.1901 11.0234 7.03906 11.0703C6.89323 11.1172 6.75781 11.1849 6.63281 11.2734C6.50781 11.362 6.39844 11.4688 6.30469 11.5938C6.21094 11.7135 6.13802 11.849 6.08594 12H8.91406ZM7.5 10C7.92188 10 8.34115 9.92969 8.75781 9.78906C9.17969 9.64844 9.55469 9.45052 9.88281 9.19531C10.2161 8.9349 10.4844 8.61979 10.6875 8.25C10.8958 7.88021 11 7.46354 11 7V4H4V7C4 7.46354 4.10156 7.88021 4.30469 8.25C4.51302 8.61979 4.78125 8.9349 5.10938 9.19531C5.44271 9.45052 5.81771 9.64844 6.23438 9.78906C6.65625 9.92969 7.07812 10 7.5 10ZM14 3H12V6.95312C12.2917 6.89062 12.5599 6.78385 12.8047 6.63281C13.0495 6.48177 13.2604 6.29948 13.4375 6.08594C13.6146 5.86719 13.7526 5.6224 13.8516 5.35156C13.9505 5.08073 14 4.79688 14 4.5V3Z" fill="#252423"/>
</svg>
